<?xml version="1.0" encoding="UTF-8"?>
<svg version="1.1" xmlns="http://www.w3.org/2000/svg" width="127" height="126">
<path d="M0 0 C1.0010376 0.00829834 2.0020752 0.01659668 3.03344727 0.02514648 C17.20381712 0.34443715 29.09469367 4.67495797 41.84228516 10.54394531 C57.77477379 17.76983235 72.71629386 21.63527488 90.25 21.5 C91.36310547 21.49548828 92.47621094 21.49097656 93.62304688 21.48632812 C96.35292101 21.47461193 99.08268174 21.45820699 101.8125 21.4375 C99.37987688 33.88439313 93.74489387 42.47435779 84.8125 51.4375 C84.19761719 52.07558594 83.58273438 52.71367188 82.94921875 53.37109375 C70.66550638 65.18134398 54.58826898 68.94669089 38.0847168 68.85961914 C20.69070492 68.40892051 7.06577171 61.64873647 -5.1875 49.4375 C-5.82558594 48.82261719 -6.46367187 48.20773438 -7.12109375 47.57421875 C-16.80929945 37.49762173 -22.31523121 23.08647387 -22.375 9.25 C-22.32762339 7.31207122 -22.27063443 5.37422434 -22.1875 3.4375 C-14.6868502 1.04948232 -7.86592794 -0.08540419 0 0 Z " fill="#2B3FFE" transform="translate(22.1875,57.5625)"/>
<path d="M0 0 C17.24468535 -0.64345841 32.59088534 4.96737803 48.05493164 11.91235352 C67.64150866 20.70232334 85.7679393 22.7868899 106.953125 21.1953125 C106.953125 25.1553125 106.953125 29.1153125 106.953125 33.1953125 C85.06682599 37.5725723 65.74161563 32.21881962 46.10693359 22.86987305 C32.60170124 16.51932652 18.6652852 12.99581037 3.703125 13.0078125 C2.45438599 13.0068457 2.45438599 13.0068457 1.18041992 13.00585938 C-5.05460831 13.05917611 -10.98350443 13.66925069 -17.046875 15.1953125 C-18.48729385 12.31447481 -17.6813938 10.75092289 -16.796875 7.6953125 C-14.84898671 2.60952908 -14.84898671 2.60952908 -11.78515625 1.02734375 C-7.8600546 0.26524372 -3.97869587 0.25504461 0 0 Z " fill="#2B3FFE" transform="translate(19.046875,33.8046875)"/>
<path d="M0 0 C6.60327305 2.25220035 12.88572297 5.19283788 19.21118164 8.11914062 C25.84205226 11.16428192 32.34156712 13.6070391 39.44360352 15.36303711 C40.27891602 15.57444336 41.11422852 15.78584961 41.97485352 16.00366211 C51.29054764 18.01631207 60.95150114 18.00975612 70.44360352 18.36303711 C71.1176866 19.62995218 71.78260848 20.90174459 72.44360352 22.17553711 C72.81485352 22.88323242 73.18610352 23.59092773 73.56860352 24.32006836 C74.44360352 26.36303711 74.44360352 26.36303711 74.44360352 29.36303711 C54.54770224 34.08926653 34.4896498 26.9270103 16.5949707 18.6965332 C0.15451633 11.19572918 -15.53888955 8.56024365 -33.55639648 8.36303711 C-32.0680031 5.23830275 -30.54174113 3.10296059 -28.05639648 0.67553711 C-27.44795898 0.07354492 -26.83952148 -0.52844727 -26.21264648 -1.14868164 C-19.71968369 -6.98316 -7.44536756 -2.37846993 0 0 Z " fill="#2B3FFE" transform="translate(48.556396484375,14.636962890625)"/>
<path d="M0 0 C9.22742857 7.45485714 9.22742857 7.45485714 11 11 C-4.36661939 12.04772405 -17.31503435 7.20611736 -30.99462891 0.90234375 C-34.37469329 -0.61856177 -37.80803718 -2.0012545 -41.25 -3.375 C-42.45140625 -3.85710938 -43.6528125 -4.33921875 -44.890625 -4.8359375 C-47.27136398 -5.72721918 -49.5208879 -6.47226822 -52 -7 C-52 -7.66 -52 -8.32 -52 -9 C-34.28520721 -12.90712546 -15.06675641 -10.27687713 0 0 Z " fill="#2B3FFE" transform="translate(99,10)"/>
</svg>
